<svg xmlns="http://www.w3.org/2000/svg" xmlns:xlink="http://www.w3.org/1999/xlink" version="1.1" id="katman_1" x="0px" y="0px" viewBox="0 0 743.8 272.29" style="enable-background:new 0 0 743.8 272.29;" xml:space="preserve" width="743.8"  height="272.29" >
<style type="text/css">
	.st0{fill:url(#SVGID_1_);}
	.st1{fill:url(#SVGID_00000159442209960001976940000014085960501586537864_);}
	.st2{fill:url(#SVGID_00000031888278067079737430000012118122500463135665_);}
	.st3{fill:url(#SVGID_00000053535053346153712250000015537030133994109886_);}
	.st4{fill:url(#SVGID_00000150076734301544743770000005166002940923290250_);}
	.st5{fill:#EE7114;}
	.st6{fill:url(#SVGID_00000142880911706142394390000015876632572442601608_);}
</style>
<g>
	<g>
		<linearGradient id="SVGID_1_" gradientUnits="userSpaceOnUse" x1="213.2776" y1="167.469" x2="721.5499" y2="167.469">
			<stop offset="0.0344" style="stop-color:#EE7114"/>
			<stop offset="0.2578" style="stop-color:#F3800E"/>
			<stop offset="0.7211" style="stop-color:#FC9B04"/>
			<stop offset="0.9946" style="stop-color:#FFA500"/>
		</linearGradient>
		<path class="st0" d="M670.32,244.98c-13.72,0-28.06-4.33-42.64-12.88c-2.87-1.68-4.95-4.51-5.72-7.76    c-0.77-3.26-0.16-6.74,1.67-9.55c3.59-5.5,10.85-7.2,16.54-3.86c10.7,6.27,20.84,9.45,30.14,9.45c9.16,0,15.98-2.18,20.85-6.67    c3.94-3.68,5.79-8,5.79-13.57c0-6.91-2.92-12.28-9.2-16.9c-2.99-2.17-9.92-6.07-25.79-12.13l-7.08-2.76    c-2.71-1.07-5.11-2.05-7.15-2.92l-0.15-0.06c-5.43-2.45-10.03-5.05-13.66-7.72c-10.01-7.23-15.12-16.59-15.12-27.79    c0-13.9,6.13-25.02,17.72-32.15c8.31-5.14,18.05-7.75,28.94-7.75c11.73,0,22.35,1.56,31.58,4.65c3.08,0.96,5.91,2.08,8.42,3.34    l0.28,0.15c2.74,1.49,4.77,4.12,5.54,7.18c0.77,3.06,0.22,6.32-1.5,8.96l-1.06,1.63c-3.21,4.92-9.76,6.57-14.92,3.77l0,0    c-1.49-0.68-3.21-1.33-5.13-1.94c-6.62-2.08-14.44-3.14-23.22-3.14h-1.74c-1.05,0.1-2.12,0.21-3.22,0.31    c-3,0.46-5.72,1.19-8.1,2.16c-6.29,2.64-9,6.48-9,12.83c0,1.94,0.56,4.92,5.39,8.3c2.47,1.71,8.31,4.86,21.91,10.04l4.23,1.6    l4.11,1.64c3.18,1.27,6.03,2.49,8.48,3.62c6.44,2.96,11.91,6.17,16.23,9.55c11.78,9.05,17.78,21.02,17.78,35.53    c0,12.03-4.33,22.39-12.87,30.78C699.21,240.25,686.3,244.98,670.32,244.98z M700.76,106.85L700.76,106.85    C700.77,106.85,700.76,106.85,700.76,106.85z"/>
	</g>
	
		<linearGradient id="SVGID_00000094581762666475142230000016864826313990865057_" gradientUnits="userSpaceOnUse" x1="213.2776" y1="167.4232" x2="721.5499" y2="167.4232">
		<stop offset="0.0344" style="stop-color:#EE7114"/>
		<stop offset="0.2578" style="stop-color:#F3800E"/>
		<stop offset="0.7211" style="stop-color:#FC9B04"/>
		<stop offset="0.9946" style="stop-color:#FFA500"/>
	</linearGradient>
	<path style="fill:url(#SVGID_00000094581762666475142230000016864826313990865057_);" d="M592.42,112.66   c-15.06-15.13-33.49-22.8-54.78-22.8c-22.02,0-41,8.2-56.41,24.37c-13.1,13.75-20.6,31.77-21.11,50.73   c-0.6,22.33,7.02,41.59,22.66,57.23c15.12,15.12,33.58,22.79,54.86,22.79c21.29,0,39.72-7.67,54.76-22.77   c15.13-15.06,22.8-33.49,22.8-54.78C615.2,146.13,607.53,127.7,592.42,112.66z M537.64,220.38c-14.76,0-27.01-5.07-37.45-15.51   c-10.84-10.83-15.9-23.65-15.49-39.18c0.35-12.88,5.41-25.12,14.27-34.47c10.68-11.28,23.33-16.76,38.66-16.76   c14.76,0,27.01,5.07,37.45,15.51c10.44,10.44,15.51,22.69,15.51,37.45c0,14.76-5.07,27.01-15.51,37.45   C564.65,215.31,552.4,220.38,537.64,220.38z"/>
	<g>
		
			<linearGradient id="SVGID_00000165929732308037527210000017072465637576613551_" gradientUnits="userSpaceOnUse" x1="210.69" y1="137.5564" x2="718.9622" y2="137.5564">
			<stop offset="0.0344" style="stop-color:#EE7114"/>
			<stop offset="0.2578" style="stop-color:#F3800E"/>
			<stop offset="0.7211" style="stop-color:#FC9B04"/>
			<stop offset="0.9946" style="stop-color:#FFA500"/>
		</linearGradient>
		<path style="fill:url(#SVGID_00000165929732308037527210000017072465637576613551_);" d="M439.25,243.68    c-6.76,0-12.25-5.5-12.25-12.25v-70.88c0-11.99-4.14-21.93-12.66-30.39c-8.49-8.48-18.4-12.6-30.33-12.6    c-11.99,0-21.94,4.12-30.41,12.58l-0.13,0.13c-8.32,7.9-12.36,17.03-12.36,27.9v73.16c0,6.81-5.54,12.34-12.35,12.34    c-6.81,0-12.34-5.54-12.34-12.34V43.73c0-6.78,5.52-12.3,12.3-12.3s12.3,5.52,12.3,12.3v64.59c12.22-10.2,26.65-15.36,42.99-15.36    c18.49,0,34.54,6.65,47.72,19.75c13.14,13.21,19.78,29.29,19.78,47.84v70.88C451.5,238.19,446,243.68,439.25,243.68z"/>
	</g>
	<g>
		
			<linearGradient id="SVGID_00000160896288666924227440000008516737311924520069_" gradientUnits="userSpaceOnUse" x1="210.6899" y1="137.9894" x2="718.963" y2="137.9894">
			<stop offset="0.0344" style="stop-color:#EE7114"/>
			<stop offset="0.2578" style="stop-color:#F3800E"/>
			<stop offset="0.7211" style="stop-color:#FC9B04"/>
			<stop offset="0.9946" style="stop-color:#FFA500"/>
		</linearGradient>
		<path style="fill:url(#SVGID_00000160896288666924227440000008516737311924520069_);" d="M269.6,244.7    c-16.13,0-30.1-5.79-41.52-17.21c-11.54-11.46-17.39-25.47-17.39-41.61V43.62c0-6.81,5.54-12.35,12.35-12.35    c6.81,0,12.35,5.54,12.35,12.35V94.8h56.89c6.78,0,12.3,5.52,12.3,12.3c0,6.78-5.52,12.3-12.3,12.3h-56.89v66.13    c0,8.81,3.09,17.04,8.71,23.18c7.02,7.67,15.36,11.4,25.51,11.4c6.17,0,11.57-1.36,16.52-4.15c3.84-2.17,8.59-2.14,12.38,0.08    c3.8,2.22,6.07,6.18,6.07,10.6c0,4.43-2.39,8.54-6.25,10.73C289.73,242.23,280.06,244.7,269.6,244.7z"/>
	</g>
	
		<linearGradient id="SVGID_00000139289514592045947150000004977957661091340698_" gradientUnits="userSpaceOnUse" x1="271.8354" y1="203.5939" x2="-21.9537" y2="199.222">
		<stop offset="0.2547" style="stop-color:#EE7114"/>
		<stop offset="0.3709" style="stop-color:#F3800E"/>
		<stop offset="0.6122" style="stop-color:#FC9B04"/>
		<stop offset="0.7545" style="stop-color:#FFA500"/>
	</linearGradient>
	<path style="fill:url(#SVGID_00000139289514592045947150000004977957661091340698_);" d="M112.85,218.39   c29.24,0,53.63-21.14,58.7-48.94c1.14-6.23,6.59-10.73,12.92-10.73h0c8.25,0,14.43,7.5,12.93,15.62   c-7.37,39.98-42.48,70.36-84.56,70.36c-17.82,0-34.4-5.45-48.14-14.78l-36.66,13.61l42.64-42.64   C81.48,211.7,96.4,218.39,112.85,218.39z"/>
	<path class="st5" d="M26.87,158.73c0-42.08,30.38-77.19,70.36-84.56c8.12-1.5,15.62,4.68,15.62,12.93v0   c0,6.33-4.5,11.79-10.73,12.92c-27.8,5.07-48.94,29.46-48.94,58.7c0,16.45,6.69,31.37,17.5,42.17l-42.64,42.64l13.61-36.66   C32.32,193.12,26.87,176.55,26.87,158.73z"/>
	<g>
		<path class="st5" d="M159.41,40.6c-1.81-2.99-4.35-5.31-7.62-6.94c-3.27-1.64-7.02-2.46-11.23-2.46h-17.28v39.52h17.28    c4.22,0,7.96-0.82,11.23-2.46c3.27-1.64,5.81-3.95,7.62-6.94c1.81-2.99,2.71-6.44,2.71-10.36    C162.12,47.05,161.22,43.6,159.41,40.6z M152.95,58.11c-1.19,2.05-2.88,3.63-5.08,4.74c-2.2,1.11-4.75,1.67-7.65,1.67h-9.6v-27.1    h9.6c2.9,0,5.45,0.56,7.65,1.67c2.2,1.11,3.9,2.69,5.08,4.74c1.18,2.05,1.78,4.43,1.78,7.14    C154.72,53.67,154.13,56.05,152.95,58.11z"/>
	</g>
	<g>
		<path class="st5" d="M188.54,57.74c2.71-1.05,4.79-2.65,6.24-4.8c1.45-2.14,2.17-4.7,2.17-7.68c0-2.9-0.68-5.4-2.03-7.51    c-1.36-2.11-3.3-3.73-5.84-4.86c-2.54-1.13-5.52-1.69-8.95-1.69h-16.26v39.52h7.34V59.21h8.92c0.68,0,1.18-0.02,1.52-0.06    l8.07,11.57h7.9L188.54,57.74z M179.79,53.17h-8.58V37.41h8.58c3.2,0,5.63,0.68,7.28,2.03c1.65,1.36,2.48,3.29,2.48,5.82    c0,2.52-0.83,4.47-2.48,5.84C185.41,52.48,182.99,53.17,179.79,53.17z"/>
	</g>
	
		<linearGradient id="SVGID_00000129203553379204678680000000622450095165555880_" gradientUnits="userSpaceOnUse" x1="63.5313" y1="158.4393" x2="160.9646" y2="158.4393">
		<stop offset="0.1305" style="stop-color:#EE7114"/>
		<stop offset="0.3315" style="stop-color:#F3800E"/>
		<stop offset="0.7485" style="stop-color:#FC9B04"/>
		<stop offset="0.9946" style="stop-color:#FFA500"/>
	</linearGradient>
	<path style="fill:url(#SVGID_00000129203553379204678680000000622450095165555880_);" d="M160.04,167.9   c0.6-3.06,0.93-6.22,0.93-9.46c0-3.95-0.48-7.79-1.37-11.47c-5.16-21.37-24.39-37.25-47.35-37.25c-22.95,0-42.19,15.88-47.35,37.25   c-0.89,3.68-1.37,7.52-1.37,11.47c0,3.24,0.32,6.4,0.93,9.46c0.34,1.73,0.77,3.43,1.28,5.08c6.19,19.8,24.67,34.17,46.51,34.17   c21.84,0,40.32-14.37,46.51-34.17h-23.27c-4.85,7.74-13.43,12.9-23.24,12.9c-9.81,0-18.39-5.16-23.24-12.9   c-1-1.59-1.83-3.29-2.49-5.08h51.46H160.04z M87.34,146.97c4.35-9.42,13.85-15.97,24.9-15.97c11.05,0,20.56,6.55,24.9,15.97H87.34z   "/>
</g>
</svg>